<svg width="22" height="24" viewBox="0 0 22 24" fill="none" xmlns="http://www.w3.org/2000/svg">
<path d="M20.9375 7.5C21.2188 7.5 21.5 7.26562 21.5 6.9375V5.25C21.5 4.03125 20.4688 3 19.25 3H17V0.5625C17 0.28125 16.7188 0 16.4375 0H14.5625C14.2344 0 14 0.28125 14 0.5625V3H8V0.5625C8 0.28125 7.71875 0 7.4375 0H5.5625C5.23438 0 5 0.28125 5 0.5625V3H2.75C1.48438 3 0.5 4.03125 0.5 5.25V6.9375C0.5 7.26562 0.734375 7.5 1.0625 7.5H20.9375ZM1.0625 9C0.734375 9 0.5 9.28125 0.5 9.5625V21.75C0.5 23.0156 1.48438 24 2.75 24H19.25C20.4688 24 21.5 23.0156 21.5 21.75V9.5625C21.5 9.28125 21.2188 9 20.9375 9H1.0625ZM16.6719 13.5C16.8594 13.7344 16.8594 14.1094 16.6719 14.2969L9.96875 20.9531C9.73438 21.1875 9.35938 21.1875 9.17188 20.9531L5.28125 17.0625C5.09375 16.8281 5.09375 16.5 5.28125 16.2656L6.64062 14.9531C6.82812 14.7188 7.20312 14.7188 7.4375 14.9531L9.59375 17.1094L14.5625 12.1875C14.75 11.9531 15.125 11.9531 15.3594 12.1875L16.6719 13.5Z" fill="#FC732F"/>
</svg>
